%TF.GenerationSoftware,Altium Limited,Altium Designer,22.10.1 (41)*%
G04 Layer_Color=128*
%FSLAX45Y45*%
%MOMM*%
%TF.SameCoordinates,CC01BCFA-2ECF-4BF2-A349-93AF2CE8EC74*%
%TF.FilePolarity,Positive*%
%TF.FileFunction,Drillmap*%
%TF.Part,Single*%
G01*
G75*
%TA.AperFunction,NonConductor*%
%ADD52C,0.12700*%
D52*
X250000Y2500000D02*
X500000D01*
X375000Y2375000D02*
Y2625000D01*
X-500000Y2500000D02*
X-250000D01*
X-375000Y2375000D02*
Y2625000D01*
X1303500Y11164999D02*
X1433500D01*
X1368500Y11099999D02*
Y11229999D01*
X2003500Y11164999D02*
X2133500D01*
X2068500Y11099999D02*
Y11229999D01*
X1443500Y11419999D02*
X1543500D01*
X1493500Y11369999D02*
Y11469999D01*
X1893500Y11419999D02*
X1993500D01*
X1943500Y11369999D02*
Y11469999D01*
X-568000Y11800000D02*
X-448000D01*
X-508000Y11740000D02*
Y11860000D01*
X-568000Y11550000D02*
X-448000D01*
X-508000Y11490000D02*
Y11610000D01*
X432000Y11800000D02*
X552000D01*
X492000Y11740000D02*
Y11860000D01*
X432000Y11550000D02*
X552000D01*
X492000Y11490000D02*
Y11610000D01*
X-68000Y11050000D02*
X52000D01*
X-8000Y10990000D02*
Y11110000D01*
X-568000Y10550000D02*
X-448000D01*
X-508000Y10490000D02*
Y10610000D01*
X432000Y10550000D02*
X552000D01*
X492000Y10490000D02*
Y10610000D01*
X-78000Y11550000D02*
X62000D01*
X-8000Y11480000D02*
Y11620000D01*
X192000Y10550000D02*
X292000D01*
X242000Y10500000D02*
Y10600000D01*
X-58000Y10550000D02*
X42000D01*
X-8000Y10500000D02*
Y10600000D01*
X-308000Y10550000D02*
X-208000D01*
X-258000Y10500000D02*
Y10600000D01*
X-578000Y11050000D02*
X-438000D01*
X-508000Y10980000D02*
Y11120000D01*
X422000Y11050000D02*
X562000D01*
X492000Y10980000D02*
Y11120000D01*
X-2991500Y11396100D02*
X-2665500D01*
X-2828500Y11233100D02*
Y11559100D01*
X-4134500Y11396100D02*
X-3808500D01*
X-3971500Y11233100D02*
Y11559100D01*
X-4219000Y11091100D02*
X-4069000D01*
X-4144000Y11016100D02*
Y11166100D01*
X-2731000Y11091100D02*
X-2581000D01*
X-2656000Y11016100D02*
Y11166100D01*
X-3889000Y10507100D02*
X-3800000D01*
X-3844500Y10462600D02*
Y10551600D01*
X-3762000Y10761100D02*
X-3673000D01*
X-3717500Y10716600D02*
Y10805600D01*
X-3635000Y10507100D02*
X-3546000D01*
X-3590500Y10462600D02*
Y10551600D01*
X-3508000Y10761100D02*
X-3419000D01*
X-3463500Y10716600D02*
Y10805600D01*
X-3381000Y10507100D02*
X-3292000D01*
X-3336500Y10462600D02*
Y10551600D01*
X-3254000Y10761100D02*
X-3165000D01*
X-3209500Y10716600D02*
Y10805600D01*
X-3127000Y10507100D02*
X-3038000D01*
X-3082500Y10462600D02*
Y10551600D01*
X-3000000Y10761100D02*
X-2911000D01*
X-2955500Y10716600D02*
Y10805600D01*
X3808500Y11396100D02*
X4134500D01*
X3971500Y11233100D02*
Y11559100D01*
X2665500Y11396100D02*
X2991500D01*
X2828500Y11233100D02*
Y11559100D01*
X2581000Y11091100D02*
X2731000D01*
X2656000Y11016100D02*
Y11166100D01*
X4069000Y11091100D02*
X4219000D01*
X4144000Y11016100D02*
Y11166100D01*
X2911000Y10507100D02*
X3000000D01*
X2955500Y10462600D02*
Y10551600D01*
X3038000Y10761100D02*
X3127000D01*
X3082500Y10716600D02*
Y10805600D01*
X3165000Y10507100D02*
X3254000D01*
X3209500Y10462600D02*
Y10551600D01*
X3292000Y10761100D02*
X3381000D01*
X3336500Y10716600D02*
Y10805600D01*
X3419000Y10507100D02*
X3508000D01*
X3463500Y10462600D02*
Y10551600D01*
X3546000Y10761100D02*
X3635000D01*
X3590500Y10716600D02*
Y10805600D01*
X3673000Y10507100D02*
X3762000D01*
X3717500Y10462600D02*
Y10551600D01*
X3800000Y10761100D02*
X3889000D01*
X3844500Y10716600D02*
Y10805600D01*
X-1684500Y10715001D02*
X-1624500D01*
X-1654500Y10685001D02*
Y10745001D01*
X-1804500Y10715001D02*
X-1744500D01*
X-1774500Y10685001D02*
Y10745001D01*
X-1804500Y10835001D02*
X-1744500D01*
X-1774500Y10805001D02*
Y10865001D01*
X-1684500Y10835001D02*
X-1624500D01*
X-1654500Y10805001D02*
Y10865001D01*
X-1414500Y11135001D02*
X-1314500D01*
X-1364500Y11085001D02*
Y11185001D01*
X-2114500Y11135001D02*
X-2014500D01*
X-2064500Y11085001D02*
Y11185001D01*
X-4650000Y1000000D02*
X-4350000D01*
X-4500000Y850000D02*
Y1150000D01*
X4350000Y1000000D02*
X4650000D01*
X4500000Y850000D02*
Y1150000D01*
X4350000Y9750000D02*
X4650000D01*
X4500000Y9600000D02*
Y9900000D01*
X-4650000Y9750000D02*
X-4350000D01*
X-4500000Y9600000D02*
Y9900000D01*
X-941000Y11846500D02*
X-837000D01*
X-889000Y11794500D02*
Y11898500D01*
X-941000Y11592500D02*
X-837000D01*
X-889000Y11540500D02*
Y11644500D01*
X-941000Y11338500D02*
X-837000D01*
X-889000Y11286500D02*
Y11390500D01*
X-941000Y11084500D02*
X-837000D01*
X-889000Y11032500D02*
Y11136500D01*
X-941000Y10830500D02*
X-837000D01*
X-889000Y10778500D02*
Y10882500D01*
X-941000Y10576500D02*
X-837000D01*
X-889000Y10524500D02*
Y10628500D01*
X-941000Y10322500D02*
X-837000D01*
X-889000Y10270500D02*
Y10374500D01*
X-941000Y10068500D02*
X-837000D01*
X-889000Y10016500D02*
Y10120500D01*
X-941000Y9814500D02*
X-837000D01*
X-889000Y9762500D02*
Y9866500D01*
X-941000Y9560500D02*
X-837000D01*
X-889000Y9508500D02*
Y9612500D01*
X-941000Y9306500D02*
X-837000D01*
X-889000Y9254500D02*
Y9358500D01*
X-941000Y9052500D02*
X-837000D01*
X-889000Y9000500D02*
Y9104500D01*
X-941000Y8798500D02*
X-837000D01*
X-889000Y8746500D02*
Y8850500D01*
X-941000Y8544500D02*
X-837000D01*
X-889000Y8492500D02*
Y8596500D01*
X-941000Y8290500D02*
X-837000D01*
X-889000Y8238500D02*
Y8342500D01*
X-941000Y8036500D02*
X-837000D01*
X-889000Y7984500D02*
Y8088500D01*
X-941000Y7782500D02*
X-837000D01*
X-889000Y7730500D02*
Y7834500D01*
X-941000Y7528500D02*
X-837000D01*
X-889000Y7476500D02*
Y7580500D01*
X-941000Y7274500D02*
X-837000D01*
X-889000Y7222500D02*
Y7326500D01*
X-941000Y7020500D02*
X-837000D01*
X-889000Y6968500D02*
Y7072500D01*
X837000Y7020500D02*
X941000D01*
X889000Y6968500D02*
Y7072500D01*
X837000Y7274500D02*
X941000D01*
X889000Y7222500D02*
Y7326500D01*
X837000Y7528500D02*
X941000D01*
X889000Y7476500D02*
Y7580500D01*
X837000Y7782500D02*
X941000D01*
X889000Y7730500D02*
Y7834500D01*
X837000Y8036500D02*
X941000D01*
X889000Y7984500D02*
Y8088500D01*
X837000Y8290500D02*
X941000D01*
X889000Y8238500D02*
Y8342500D01*
X837000Y8544500D02*
X941000D01*
X889000Y8492500D02*
Y8596500D01*
X837000Y8798500D02*
X941000D01*
X889000Y8746500D02*
Y8850500D01*
X837000Y9052500D02*
X941000D01*
X889000Y9000500D02*
Y9104500D01*
X837000Y9306500D02*
X941000D01*
X889000Y9254500D02*
Y9358500D01*
X837000Y9560500D02*
X941000D01*
X889000Y9508500D02*
Y9612500D01*
X837000Y9814500D02*
X941000D01*
X889000Y9762500D02*
Y9866500D01*
X837000Y10068500D02*
X941000D01*
X889000Y10016500D02*
Y10120500D01*
X837000Y10322500D02*
X941000D01*
X889000Y10270500D02*
Y10374500D01*
X837000Y10576500D02*
X941000D01*
X889000Y10524500D02*
Y10628500D01*
X837000Y10830500D02*
X941000D01*
X889000Y10778500D02*
Y10882500D01*
X837000Y11084500D02*
X941000D01*
X889000Y11032500D02*
Y11136500D01*
X837000Y11338500D02*
X941000D01*
X889000Y11286500D02*
Y11390500D01*
X837000Y11592500D02*
X941000D01*
X889000Y11540500D02*
Y11644500D01*
X837000Y11846500D02*
X941000D01*
X889000Y11794500D02*
Y11898500D01*
X147300Y9722700D02*
X187300D01*
X167300Y9702700D02*
Y9742700D01*
X-2636280Y10863720D02*
X-2596280D01*
X-2616280Y10843720D02*
Y10883720D01*
X-3620000Y9830000D02*
X-3580000D01*
X-3600000Y9810000D02*
Y9850000D01*
X-1202700Y9850000D02*
X-1162700D01*
X-1182700Y9830000D02*
Y9870000D01*
X1615000Y7960000D02*
X1655000D01*
X1635000Y7940000D02*
Y7980000D01*
X1380000Y7210000D02*
X1420000D01*
X1400000Y7190000D02*
Y7230000D01*
X-1985000Y7857500D02*
X-1945000D01*
X-1965000Y7837500D02*
Y7877500D01*
X-1630000Y8340000D02*
X-1590000D01*
X-1610000Y8320000D02*
Y8360000D01*
X3874000Y8553500D02*
X3914000D01*
X3894000Y8533500D02*
Y8573500D01*
X4374000Y7553500D02*
X4414000D01*
X4394000Y7533500D02*
Y7573500D01*
X3874000Y6553500D02*
X3914000D01*
X3894000Y6533500D02*
Y6573500D01*
X4374000Y5553500D02*
X4414000D01*
X4394000Y5533500D02*
Y5573500D01*
X3874000Y4553500D02*
X3914000D01*
X3894000Y4533500D02*
Y4573500D01*
X4374000Y3553500D02*
X4414000D01*
X4394000Y3533500D02*
Y3573500D01*
X3874000Y2553500D02*
X3914000D01*
X3894000Y2533500D02*
Y2573500D01*
X4374000Y1553500D02*
X4414000D01*
X4394000Y1533500D02*
Y1573500D01*
X3874000Y553500D02*
X3914000D01*
X3894000Y533500D02*
Y573500D01*
X3374000Y7553500D02*
X3414000D01*
X3394000Y7533500D02*
Y7573500D01*
X2874000Y6553500D02*
X2914000D01*
X2894000Y6533500D02*
Y6573500D01*
X3374000Y5553500D02*
X3414000D01*
X3394000Y5533500D02*
Y5573500D01*
X2874000Y4553500D02*
X2914000D01*
X2894000Y4533500D02*
Y4573500D01*
X3374000Y3553500D02*
X3414000D01*
X3394000Y3533500D02*
Y3573500D01*
X2874000Y2553500D02*
X2914000D01*
X2894000Y2533500D02*
Y2573500D01*
X3374000Y1553500D02*
X3414000D01*
X3394000Y1533500D02*
Y1573500D01*
X2874000Y553500D02*
X2914000D01*
X2894000Y533500D02*
Y573500D01*
X1874000Y10553500D02*
X1914000D01*
X1894000Y10533500D02*
Y10573500D01*
X2374000Y9553500D02*
X2414000D01*
X2394000Y9533500D02*
Y9573500D01*
X1874000Y8553500D02*
X1914000D01*
X1894000Y8533500D02*
Y8573500D01*
X2374000Y7553500D02*
X2414000D01*
X2394000Y7533500D02*
Y7573500D01*
X2374000Y5553500D02*
X2414000D01*
X2394000Y5533500D02*
Y5573500D01*
X1874000Y4553500D02*
X1914000D01*
X1894000Y4533500D02*
Y4573500D01*
X2374000Y3553500D02*
X2414000D01*
X2394000Y3533500D02*
Y3573500D01*
X1874000Y2553500D02*
X1914000D01*
X1894000Y2533500D02*
Y2573500D01*
X2374000Y1553500D02*
X2414000D01*
X2394000Y1533500D02*
Y1573500D01*
X1874000Y553500D02*
X1914000D01*
X1894000Y533500D02*
Y573500D01*
X1374000Y9553500D02*
X1414000D01*
X1394000Y9533500D02*
Y9573500D01*
X1374000Y7553500D02*
X1414000D01*
X1394000Y7533500D02*
Y7573500D01*
X1374000Y5553500D02*
X1414000D01*
X1394000Y5533500D02*
Y5573500D01*
X874000Y4553500D02*
X914000D01*
X894000Y4533500D02*
Y4573500D01*
X1374000Y3553500D02*
X1414000D01*
X1394000Y3533500D02*
Y3573500D01*
X874000Y2553500D02*
X914000D01*
X894000Y2533500D02*
Y2573500D01*
X1374000Y1553500D02*
X1414000D01*
X1394000Y1533500D02*
Y1573500D01*
X874000Y553500D02*
X914000D01*
X894000Y533500D02*
Y573500D01*
X374000Y9553500D02*
X414000D01*
X394000Y9533500D02*
Y9573500D01*
X-126000Y8553500D02*
X-86000D01*
X-106000Y8533500D02*
Y8573500D01*
X374000Y5553500D02*
X414000D01*
X394000Y5533500D02*
Y5573500D01*
X-126000Y4553500D02*
X-86000D01*
X-106000Y4533500D02*
Y4573500D01*
X374000Y3553500D02*
X414000D01*
X394000Y3533500D02*
Y3573500D01*
X374000Y1553500D02*
X414000D01*
X394000Y1533500D02*
Y1573500D01*
X-126000Y553500D02*
X-86000D01*
X-106000Y533500D02*
Y573500D01*
X-626000Y9553500D02*
X-586000D01*
X-606000Y9533500D02*
Y9573500D01*
X-1126000Y6553500D02*
X-1086000D01*
X-1106000Y6533500D02*
Y6573500D01*
X-626000Y5553500D02*
X-586000D01*
X-606000Y5533500D02*
Y5573500D01*
X-1126000Y4553500D02*
X-1086000D01*
X-1106000Y4533500D02*
Y4573500D01*
X-626000Y3553500D02*
X-586000D01*
X-606000Y3533500D02*
Y3573500D01*
X-1126000Y2553500D02*
X-1086000D01*
X-1106000Y2533500D02*
Y2573500D01*
X-626000Y1553500D02*
X-586000D01*
X-606000Y1533500D02*
Y1573500D01*
X-1126000Y553500D02*
X-1086000D01*
X-1106000Y533500D02*
Y573500D01*
X-2126000Y10553500D02*
X-2086000D01*
X-2106000Y10533500D02*
Y10573500D01*
X-1626000Y7553500D02*
X-1586000D01*
X-1606000Y7533500D02*
Y7573500D01*
X-2126000Y6553500D02*
X-2086000D01*
X-2106000Y6533500D02*
Y6573500D01*
X-1626000Y5553500D02*
X-1586000D01*
X-1606000Y5533500D02*
Y5573500D01*
X-2126000Y4553500D02*
X-2086000D01*
X-2106000Y4533500D02*
Y4573500D01*
X-1626000Y3553500D02*
X-1586000D01*
X-1606000Y3533500D02*
Y3573500D01*
X-2126000Y2553500D02*
X-2086000D01*
X-2106000Y2533500D02*
Y2573500D01*
X-1626000Y1553500D02*
X-1586000D01*
X-1606000Y1533500D02*
Y1573500D01*
X-2126000Y553500D02*
X-2086000D01*
X-2106000Y533500D02*
Y573500D01*
X-3126000Y8553500D02*
X-3086000D01*
X-3106000Y8533500D02*
Y8573500D01*
X-2626000Y7553500D02*
X-2586000D01*
X-2606000Y7533500D02*
Y7573500D01*
X-3126000Y6553500D02*
X-3086000D01*
X-3106000Y6533500D02*
Y6573500D01*
X-2626000Y5553500D02*
X-2586000D01*
X-2606000Y5533500D02*
Y5573500D01*
X-3126000Y4553500D02*
X-3086000D01*
X-3106000Y4533500D02*
Y4573500D01*
X-2626000Y3553500D02*
X-2586000D01*
X-2606000Y3533500D02*
Y3573500D01*
X-3126000Y2553500D02*
X-3086000D01*
X-3106000Y2533500D02*
Y2573500D01*
X-2626000Y1553500D02*
X-2586000D01*
X-2606000Y1533500D02*
Y1573500D01*
X-3126000Y553500D02*
X-3086000D01*
X-3106000Y533500D02*
Y573500D01*
X-4126000Y10553500D02*
X-4086000D01*
X-4106000Y10533500D02*
Y10573500D01*
X-4126000Y8553500D02*
X-4086000D01*
X-4106000Y8533500D02*
Y8573500D01*
X-3626000Y7553500D02*
X-3586000D01*
X-3606000Y7533500D02*
Y7573500D01*
X-4126000Y6553500D02*
X-4086000D01*
X-4106000Y6533500D02*
Y6573500D01*
X-3626000Y5553500D02*
X-3586000D01*
X-3606000Y5533500D02*
Y5573500D01*
X-4126000Y4553500D02*
X-4086000D01*
X-4106000Y4533500D02*
Y4573500D01*
X-3626000Y3553500D02*
X-3586000D01*
X-3606000Y3533500D02*
Y3573500D01*
X-4126000Y2553500D02*
X-4086000D01*
X-4106000Y2533500D02*
Y2573500D01*
X-3626000Y1553500D02*
X-3586000D01*
X-3606000Y1533500D02*
Y1573500D01*
X-4126000Y553500D02*
X-4086000D01*
X-4106000Y533500D02*
Y573500D01*
X-3470000Y10350000D02*
X-3430000D01*
X-3450000Y10330000D02*
Y10370000D01*
X-3270000Y10350000D02*
X-3230000D01*
X-3250000Y10330000D02*
Y10370000D01*
X-720000Y10950000D02*
X-680000D01*
X-700000Y10930000D02*
Y10970000D01*
X2695000Y10825000D02*
X2755000D01*
X2725000Y10795000D02*
Y10855000D01*
X-2520000Y9175000D02*
X-2480000D01*
X-2500000Y9155000D02*
Y9195000D01*
X-2520000Y9375000D02*
X-2480000D01*
X-2500000Y9355000D02*
Y9395000D01*
X-2520000Y9825000D02*
X-2480000D01*
X-2500000Y9805000D02*
Y9845000D01*
X-4010000Y9280000D02*
X-3970000D01*
X-3990000Y9260000D02*
Y9300000D01*
X2960000Y9640000D02*
X3000000D01*
X2980000Y9620000D02*
Y9660000D01*
X2590000Y9280000D02*
X2630000D01*
X2610000Y9260000D02*
Y9300000D01*
X4050000Y9820000D02*
X4090000D01*
X4070000Y9800000D02*
Y9840000D01*
X4050000Y9370000D02*
X4090000D01*
X4070000Y9350000D02*
Y9390000D01*
X3920000Y9070000D02*
X3960000D01*
X3940000Y9050000D02*
Y9090000D01*
X3900199Y10070199D02*
X3940199D01*
X3920199Y10050199D02*
Y10090199D01*
X-2900000Y10070000D02*
X-2860000D01*
X-2880000Y10050000D02*
Y10090000D01*
X-3620691Y9645000D02*
X-3580691D01*
X-3600691Y9625000D02*
Y9665000D01*
%TF.MD5,a40d768868b8cc521fb733d243f8f1e2*%
M02*
