%TF.GenerationSoftware,Altium Limited,Altium Designer,22.10.1 (41)*%
G04 Layer_Color=0*
%FSLAX45Y45*%
%MOMM*%
%TF.SameCoordinates,CC01BCFA-2ECF-4BF2-A349-93AF2CE8EC74*%
%TF.FilePolarity,Positive*%
%TF.FileFunction,Plated,1,2,PTH,Drill*%
%TF.Part,Single*%
G01*
G75*
%TA.AperFunction,ComponentDrill*%
%ADD70C,1.00000*%
%ADD71C,1.30000*%
%ADD72C,1.40000*%
%ADD73C,1.00000*%
%ADD74C,1.40000*%
%ADD75C,1.50000*%
%ADD76C,0.89000*%
%ADD77C,0.60000*%
%TA.AperFunction,OtherDrill,Pad Free-1 (-45mm,10mm)*%
%ADD78C,3.00000*%
%TA.AperFunction,OtherDrill,Pad Free-1 (45mm,10mm)*%
%ADD79C,3.00000*%
%TA.AperFunction,OtherDrill,Pad Free-1 (45mm,97.5mm)*%
%ADD80C,3.00000*%
%TA.AperFunction,OtherDrill,Pad Free-1 (-45mm,97.5mm)*%
%ADD81C,3.00000*%
%TA.AperFunction,ComponentDrill*%
%ADD82C,1.04000*%
%TA.AperFunction,ViaDrill,NotFilled*%
%ADD83C,0.40000*%
%ADD84C,0.60000*%
D70*
X1493500Y11419999D02*
D03*
X1943500D02*
D03*
D71*
X1368500Y11164999D02*
D03*
X2068500D02*
D03*
D72*
X-8000Y11550000D02*
D03*
D73*
X242000Y10550000D02*
D03*
X-8000D02*
D03*
X-258000D02*
D03*
D74*
X-508000Y11050000D02*
D03*
X492000D02*
D03*
D75*
X-4144000Y11091100D02*
D03*
X-2656000D02*
D03*
X2656000Y11091100D02*
D03*
X4144000D02*
D03*
D76*
X-3844500Y10507100D02*
D03*
X-3717500Y10761100D02*
D03*
X-3590500Y10507100D02*
D03*
X-3463500Y10761100D02*
D03*
X-3336500Y10507100D02*
D03*
X-3209500Y10761100D02*
D03*
X-3082500Y10507100D02*
D03*
X-2955500Y10761100D02*
D03*
X2955500Y10507100D02*
D03*
X3082500Y10761100D02*
D03*
X3209500Y10507100D02*
D03*
X3336500Y10761100D02*
D03*
X3463500Y10507100D02*
D03*
X3590500Y10761100D02*
D03*
X3717500Y10507100D02*
D03*
X3844500Y10761100D02*
D03*
D77*
X-1654500Y10715001D02*
D03*
X-1774500D02*
D03*
Y10835001D02*
D03*
X-1654500D02*
D03*
D78*
X-4500000Y1000000D02*
D03*
D79*
X4500000D02*
D03*
D80*
Y9750000D02*
D03*
D81*
X-4500000D02*
D03*
D82*
X-889000Y11846500D02*
D03*
Y11592500D02*
D03*
Y11338500D02*
D03*
Y11084500D02*
D03*
Y10830500D02*
D03*
Y10576500D02*
D03*
Y10322500D02*
D03*
Y10068500D02*
D03*
Y9814500D02*
D03*
Y9560500D02*
D03*
Y9306500D02*
D03*
Y9052500D02*
D03*
Y8798500D02*
D03*
Y8544500D02*
D03*
Y8290500D02*
D03*
Y8036500D02*
D03*
Y7782500D02*
D03*
Y7528500D02*
D03*
Y7274500D02*
D03*
Y7020500D02*
D03*
X889000D02*
D03*
Y7274500D02*
D03*
Y7528500D02*
D03*
Y7782500D02*
D03*
Y8036500D02*
D03*
Y8290500D02*
D03*
Y8544500D02*
D03*
Y8798500D02*
D03*
Y9052500D02*
D03*
Y9306500D02*
D03*
Y9560500D02*
D03*
Y9814500D02*
D03*
Y10068500D02*
D03*
Y10322500D02*
D03*
Y10576500D02*
D03*
Y10830500D02*
D03*
Y11084500D02*
D03*
Y11338500D02*
D03*
Y11592500D02*
D03*
Y11846500D02*
D03*
D83*
X167300Y9722700D02*
D03*
X-2616280Y10863720D02*
D03*
X-3600000Y9830000D02*
D03*
X-1182700Y9850000D02*
D03*
X1635000Y7960000D02*
D03*
X1400000Y7210000D02*
D03*
X-1965000Y7857500D02*
D03*
X-1610000Y8340000D02*
D03*
X3894000Y8553500D02*
D03*
X4394000Y7553500D02*
D03*
X3894000Y6553500D02*
D03*
X4394000Y5553500D02*
D03*
X3894000Y4553500D02*
D03*
X4394000Y3553500D02*
D03*
X3894000Y2553500D02*
D03*
X4394000Y1553500D02*
D03*
X3894000Y553500D02*
D03*
X3394000Y7553500D02*
D03*
X2894000Y6553500D02*
D03*
X3394000Y5553500D02*
D03*
X2894000Y4553500D02*
D03*
X3394000Y3553500D02*
D03*
X2894000Y2553500D02*
D03*
X3394000Y1553500D02*
D03*
X2894000Y553500D02*
D03*
X1894000Y10553500D02*
D03*
X2394000Y9553500D02*
D03*
X1894000Y8553500D02*
D03*
X2394000Y7553500D02*
D03*
Y5553500D02*
D03*
X1894000Y4553500D02*
D03*
X2394000Y3553500D02*
D03*
X1894000Y2553500D02*
D03*
X2394000Y1553500D02*
D03*
X1894000Y553500D02*
D03*
X1394000Y9553500D02*
D03*
Y7553500D02*
D03*
Y5553500D02*
D03*
X894000Y4553500D02*
D03*
X1394000Y3553500D02*
D03*
X894000Y2553500D02*
D03*
X1394000Y1553500D02*
D03*
X894000Y553500D02*
D03*
X394000Y9553500D02*
D03*
X-106000Y8553500D02*
D03*
X394000Y5553500D02*
D03*
X-106000Y4553500D02*
D03*
X394000Y3553500D02*
D03*
Y1553500D02*
D03*
X-106000Y553500D02*
D03*
X-606000Y9553500D02*
D03*
X-1106000Y6553500D02*
D03*
X-606000Y5553500D02*
D03*
X-1106000Y4553500D02*
D03*
X-606000Y3553500D02*
D03*
X-1106000Y2553500D02*
D03*
X-606000Y1553500D02*
D03*
X-1106000Y553500D02*
D03*
X-2106000Y10553500D02*
D03*
X-1606000Y7553500D02*
D03*
X-2106000Y6553500D02*
D03*
X-1606000Y5553500D02*
D03*
X-2106000Y4553500D02*
D03*
X-1606000Y3553500D02*
D03*
X-2106000Y2553500D02*
D03*
X-1606000Y1553500D02*
D03*
X-2106000Y553500D02*
D03*
X-3106000Y8553500D02*
D03*
X-2606000Y7553500D02*
D03*
X-3106000Y6553500D02*
D03*
X-2606000Y5553500D02*
D03*
X-3106000Y4553500D02*
D03*
X-2606000Y3553500D02*
D03*
X-3106000Y2553500D02*
D03*
X-2606000Y1553500D02*
D03*
X-3106000Y553500D02*
D03*
X-4106000Y10553500D02*
D03*
Y8553500D02*
D03*
X-3606000Y7553500D02*
D03*
X-4106000Y6553500D02*
D03*
X-3606000Y5553500D02*
D03*
X-4106000Y4553500D02*
D03*
X-3606000Y3553500D02*
D03*
X-4106000Y2553500D02*
D03*
X-3606000Y1553500D02*
D03*
X-4106000Y553500D02*
D03*
X-3450000Y10350000D02*
D03*
X-3250000D02*
D03*
X-700000Y10950000D02*
D03*
X-2500000Y9175000D02*
D03*
Y9375000D02*
D03*
Y9825000D02*
D03*
X-3990000Y9280000D02*
D03*
X2980000Y9640000D02*
D03*
X2610000Y9280000D02*
D03*
X4070000Y9820000D02*
D03*
Y9370000D02*
D03*
X3940000Y9070000D02*
D03*
X3920199Y10070199D02*
D03*
X-2880000Y10070000D02*
D03*
X-3600691Y9645000D02*
D03*
D84*
X2725000Y10825000D02*
D03*
%TF.MD5,0dfa80aca5a2aac05b3df439361694ec*%
M02*
