%TF.GenerationSoftware,Altium Limited,Altium Designer,22.10.1 (41)*%
G04 Layer_Color=16711935*
%FSLAX45Y45*%
%MOMM*%
%TF.SameCoordinates,CC01BCFA-2ECF-4BF2-A349-93AF2CE8EC74*%
%TF.FilePolarity,Positive*%
%TF.FileFunction,Other,Top_3D_Body*%
%TF.Part,Single*%
G01*
G75*
%TA.AperFunction,NonConductor*%
%ADD50C,0.20000*%
%ADD51C,0.10000*%
%ADD52C,0.12700*%
D50*
X652000Y11550000D02*
G03*
X652000Y11550000I-10000J0D01*
G01*
X-10000Y2620000D02*
G03*
X-10000Y2620000I-10000J0D01*
G01*
X3100000Y9820000D02*
X3500000D01*
Y9320000D02*
Y9820000D01*
X3100000Y9320000D02*
X3500000D01*
X3100000D02*
Y9820000D01*
X-3500000Y9820000D02*
X-3100000D01*
Y9320000D02*
Y9820000D01*
X-3500000Y9320000D02*
X-3100000D01*
X-3500000D02*
Y9820000D01*
X-2239500Y10460001D02*
X-1189500D01*
X-2239500D02*
Y11950000D01*
X-1189500D01*
Y10460001D02*
Y11950000D01*
X-80000Y9548000D02*
X80000D01*
Y9248000D02*
Y9548000D01*
X-80000Y9248000D02*
X80000D01*
X-80000D02*
Y9548000D01*
D51*
X-2648000Y10391100D02*
Y11850000D01*
X-4152000Y10391100D02*
Y11850000D01*
Y10391100D02*
X-2648000D01*
X4152000Y10391100D02*
Y11850000D01*
X2648000Y10391100D02*
Y11850000D01*
Y10391100D02*
X4152000D01*
X-60000Y2660000D02*
X60000D01*
X-60000Y2340000D02*
Y2660000D01*
Y2340000D02*
X60000D01*
Y2660000D01*
D52*
X-608000Y10350000D02*
Y11900000D01*
Y10350000D02*
X592000D01*
X-608000Y11900000D02*
X-458000D01*
X442000D02*
X592000D01*
X442000D02*
Y11950000D01*
X-458000D02*
X442000D01*
X-458000Y11900000D02*
Y11950000D01*
X592000Y10350000D02*
Y11900000D01*
%TF.MD5,2a785657fc3011cf1a509b33e9ebcd81*%
M02*
