%TF.GenerationSoftware,Altium Limited,Altium Designer,22.10.1 (41)*%
G04 Layer_Color=16711935*
%FSLAX45Y45*%
%MOMM*%
%TF.SameCoordinates,CC01BCFA-2ECF-4BF2-A349-93AF2CE8EC74*%
%TF.FilePolarity,Positive*%
%TF.FileFunction,Other,Mechanical_1*%
%TF.Part,Single*%
G01*
G75*
%TA.AperFunction,NonConductor*%
%ADD51C,0.10000*%
D51*
X-2665500Y11395500D02*
G03*
X-2665000Y11395000I500J0D01*
G01*
X-2828500Y11233100D02*
G03*
X-2665500Y11396100I0J163000D01*
G01*
D02*
G03*
X-2828500Y11559100I-163000J0D01*
G01*
X-3068000Y10920000D02*
G03*
X-2950000Y11038000I0J118000D01*
G01*
X-3850000D02*
G03*
X-3732000Y10920000I118000J0D01*
G01*
X-2755500Y11900000D02*
G03*
X-2637500Y12018000I0J118000D01*
G01*
X-3971500Y11559100D02*
G03*
X-4134500Y11396100I0J-163000D01*
G01*
D02*
G03*
X-3971500Y11233100I163000J0D01*
G01*
X-4162500Y12018000D02*
G03*
X-4044500Y11900000I118000J0D01*
G01*
X4134500Y11395500D02*
G03*
X4135000Y11395000I500J0D01*
G01*
X3971500Y11233100D02*
G03*
X4134500Y11396100I0J163000D01*
G01*
D02*
G03*
X3971500Y11559100I-163000J0D01*
G01*
X3732000Y10919999D02*
G03*
X3850000Y11038000I0J118000D01*
G01*
X2950000D02*
G03*
X3068000Y10919999I118000J0D01*
G01*
X4044500Y11900000D02*
G03*
X4162500Y12018000I0J118000D01*
G01*
X2828500Y11559100D02*
G03*
X2665500Y11396100I0J-163000D01*
G01*
D02*
G03*
X2828500Y11233100I163000J0D01*
G01*
X2637500Y12018000D02*
G03*
X2755500Y11900000I118000J0D01*
G01*
X-5000000Y127000D02*
G03*
X-4873000Y0I127000J0D01*
G01*
X-4373000Y12000000D02*
G03*
X-4500000Y11873000I0J-127000D01*
G01*
X4500000D02*
G03*
X4373000Y12000000I-127000J0D01*
G01*
X-4627000Y11723000D02*
G03*
X-4500000Y11850000I0J127000D01*
G01*
X-4873000Y11723000D02*
G03*
X-5000000Y11596000I0J-127000D01*
G01*
X5000000D02*
G03*
X4873000Y11723000I-127000J0D01*
G01*
X4500000Y11850000D02*
G03*
X4627000Y11723000I127000J0D01*
G01*
X4873000Y0D02*
G03*
X5000000Y127000I0J127000D01*
G01*
X-3400000Y10920000D02*
X-3068000D01*
X-2950000Y11233100D02*
X-2828500D01*
X-2950000Y11559100D02*
X-2828500D01*
X-2950000Y11038000D02*
Y11233100D01*
Y11559100D02*
Y11900000D01*
X-3732000Y10920000D02*
X-3400000D01*
X-3850000Y11038000D02*
Y11233100D01*
Y11559100D02*
Y11900000D01*
X-3971500Y11233100D02*
X-3850000D01*
X-3971500Y11559100D02*
X-3850000D01*
X-4044500Y11900000D02*
X-3850000D01*
X-3400000Y12209300D02*
X-2637500D01*
X-4162500D02*
X-3400000D01*
X-2950000Y11900000D02*
X-2755500D01*
X-2637500Y12018000D02*
Y12209300D01*
X-4162500Y12018000D02*
Y12209300D01*
X3400000Y10920000D02*
X3732000D01*
X3850000Y11233100D02*
X3971500D01*
X3850000Y11559100D02*
X3971500D01*
X3850000Y11038000D02*
Y11233100D01*
Y11559100D02*
Y11900000D01*
X3068000Y10920000D02*
X3400000D01*
X2950000Y11038000D02*
Y11233100D01*
Y11559100D02*
Y11900000D01*
X2828500Y11233100D02*
X2950000D01*
X2828500Y11559100D02*
X2950000D01*
X2755500Y11900000D02*
X2950000D01*
X3400000Y12209300D02*
X4162500D01*
X2637500D02*
X3400000D01*
X3850000Y11900000D02*
X4044500D01*
X4162500Y12018000D02*
Y12209300D01*
X2637500Y12018000D02*
Y12209300D01*
X-4873000Y0D02*
X4873000D01*
X-5000000Y127000D02*
Y11596000D01*
X-4500000Y11850000D02*
Y11873000D01*
X-4373000Y12000000D02*
X4373000D01*
X4500000Y11850000D02*
Y11873000D01*
X-4873000Y11723000D02*
X-4627000D01*
X4627000D02*
X4873000D01*
X4999999Y11596000D02*
X5000000Y127001D01*
%TF.MD5,e111e6e4e729d48509cfc85d6e05e379*%
M02*
