%TF.GenerationSoftware,Altium Limited,Altium Designer,22.10.1 (41)*%
G04 Layer_Color=16711935*
%FSLAX45Y45*%
%MOMM*%
%TF.SameCoordinates,CC01BCFA-2ECF-4BF2-A349-93AF2CE8EC74*%
%TF.FilePolarity,Negative*%
%TF.FileFunction,Soldermask,Bot*%
%TF.Part,Single*%
G01*
G75*
%TA.AperFunction,WasherPad*%
%ADD28C,2.50000*%
%TA.AperFunction,ComponentPad*%
%ADD29C,1.95000*%
%ADD30C,1.50000*%
%ADD31C,1.20000*%
%ADD32O,2.60000X2.20000*%
%ADD33C,1.50800*%
%ADD34O,2.00000X2.60000*%
%ADD35C,1.63000*%
%ADD36C,2.10000*%
%ADD37C,1.44600*%
%ADD38R,1.44600X1.44600*%
%ADD39C,1.00000*%
%ADD40C,0.60000*%
%ADD42R,1.39000X1.39000*%
%ADD43C,1.39000*%
%TA.AperFunction,ViaPad*%
%ADD46C,2.55200*%
D28*
X375000Y2500000D02*
D03*
X-375000D02*
D03*
D29*
X1368500Y11164999D02*
D03*
X2068500D02*
D03*
D30*
X1493500Y11419999D02*
D03*
X1943500D02*
D03*
D31*
X-508000Y11800000D02*
D03*
Y11550000D02*
D03*
X492000Y11800000D02*
D03*
Y11550000D02*
D03*
X-8000Y11050000D02*
D03*
X-508000Y10550000D02*
D03*
X492000D02*
D03*
D32*
X-8000Y11550000D02*
D03*
D33*
X242000Y10550000D02*
D03*
X-8000D02*
D03*
X-258000D02*
D03*
D34*
X-508000Y11050000D02*
D03*
X492000D02*
D03*
D35*
X-2828500Y11396100D02*
D03*
X-3971500D02*
D03*
X3971500Y11396100D02*
D03*
X2828500D02*
D03*
D36*
X-4144000Y11091100D02*
D03*
X-2656000D02*
D03*
X2656000Y11091100D02*
D03*
X4144000D02*
D03*
D37*
X-3844500Y10507100D02*
D03*
X-3717500Y10761100D02*
D03*
X-3590500Y10507100D02*
D03*
X-3463500Y10761100D02*
D03*
X-3336500Y10507100D02*
D03*
X-3209500Y10761100D02*
D03*
X-3082500Y10507100D02*
D03*
X2955500Y10507100D02*
D03*
X3082500Y10761100D02*
D03*
X3209500Y10507100D02*
D03*
X3336500Y10761100D02*
D03*
X3463500Y10507100D02*
D03*
X3590500Y10761100D02*
D03*
X3717500Y10507100D02*
D03*
D38*
X-2955500Y10761100D02*
D03*
X3844500Y10761100D02*
D03*
D39*
X-1654500Y10715001D02*
D03*
X-1774500D02*
D03*
Y10835001D02*
D03*
X-1654500D02*
D03*
D40*
X-1364500Y11135001D02*
D03*
X-2064500D02*
D03*
D42*
X-889000Y11846500D02*
D03*
X889000Y7020500D02*
D03*
D43*
X-889000Y11592500D02*
D03*
Y11338500D02*
D03*
Y11084500D02*
D03*
Y10830500D02*
D03*
Y10576500D02*
D03*
Y10322500D02*
D03*
Y10068500D02*
D03*
Y9814500D02*
D03*
Y9560500D02*
D03*
Y9306500D02*
D03*
Y9052500D02*
D03*
Y8798500D02*
D03*
Y8544500D02*
D03*
Y8290500D02*
D03*
Y8036500D02*
D03*
Y7782500D02*
D03*
Y7528500D02*
D03*
Y7274500D02*
D03*
Y7020500D02*
D03*
X889000Y7274500D02*
D03*
Y7528500D02*
D03*
Y7782500D02*
D03*
Y8036500D02*
D03*
Y8290500D02*
D03*
Y8544500D02*
D03*
Y8798500D02*
D03*
Y9052500D02*
D03*
Y9306500D02*
D03*
Y9560500D02*
D03*
Y9814500D02*
D03*
Y10068500D02*
D03*
Y10322500D02*
D03*
Y10576500D02*
D03*
Y10830500D02*
D03*
Y11084500D02*
D03*
Y11338500D02*
D03*
Y11592500D02*
D03*
Y11846500D02*
D03*
D46*
X-4500000Y1000000D02*
D03*
X4500000D02*
D03*
Y9750000D02*
D03*
X-4500000D02*
D03*
%TF.MD5,8baf845735ca24f11cb60530d2ac0bc2*%
M02*
