%TF.GenerationSoftware,Altium Limited,Altium Designer,22.10.1 (41)*%
G04 Layer_Color=8388736*
%FSLAX45Y45*%
%MOMM*%
%TF.SameCoordinates,CC01BCFA-2ECF-4BF2-A349-93AF2CE8EC74*%
%TF.FilePolarity,Negative*%
%TF.FileFunction,Soldermask,Top*%
%TF.Part,Single*%
G01*
G75*
%TA.AperFunction,SMDPad,CuDef*%
G04:AMPARAMS|DCode=10|XSize=0.45mm|YSize=1.4mm|CornerRadius=0.0495mm|HoleSize=0mm|Usage=FLASHONLY|Rotation=90.000|XOffset=0mm|YOffset=0mm|HoleType=Round|Shape=RoundedRectangle|*
%AMROUNDEDRECTD10*
21,1,0.45000,1.30100,0,0,90.0*
21,1,0.35100,1.40000,0,0,90.0*
1,1,0.09900,0.65050,0.17550*
1,1,0.09900,0.65050,-0.17550*
1,1,0.09900,-0.65050,-0.17550*
1,1,0.09900,-0.65050,0.17550*
%
%ADD10ROUNDEDRECTD10*%
%ADD11R,0.91213X0.95872*%
%ADD12R,0.95872X0.91213*%
%ADD13R,0.60960X0.25400*%
%ADD14R,1.16000X1.47000*%
%ADD16R,2.75000X3.75000*%
%ADD17R,0.83107X0.24247*%
G04:AMPARAMS|DCode=18|XSize=0.83107mm|YSize=0.24247mm|CornerRadius=0.12124mm|HoleSize=0mm|Usage=FLASHONLY|Rotation=0.000|XOffset=0mm|YOffset=0mm|HoleType=Round|Shape=RoundedRectangle|*
%AMROUNDEDRECTD18*
21,1,0.83107,0.00000,0,0,0.0*
21,1,0.58859,0.24247,0,0,0.0*
1,1,0.24247,0.29430,0.00000*
1,1,0.24247,-0.29430,0.00000*
1,1,0.24247,-0.29430,0.00000*
1,1,0.24247,0.29430,0.00000*
%
%ADD18ROUNDEDRECTD18*%
G04:AMPARAMS|DCode=19|XSize=0.24247mm|YSize=0.83107mm|CornerRadius=0.12124mm|HoleSize=0mm|Usage=FLASHONLY|Rotation=0.000|XOffset=0mm|YOffset=0mm|HoleType=Round|Shape=RoundedRectangle|*
%AMROUNDEDRECTD19*
21,1,0.24247,0.58859,0,0,0.0*
21,1,0.00000,0.83107,0,0,0.0*
1,1,0.24247,0.00000,-0.29430*
1,1,0.24247,0.00000,-0.29430*
1,1,0.24247,0.00000,0.29430*
1,1,0.24247,0.00000,0.29430*
%
%ADD19ROUNDEDRECTD19*%
%ADD20R,0.95814X0.91213*%
%ADD21R,0.91213X0.95814*%
%ADD22R,1.40712X0.57583*%
G04:AMPARAMS|DCode=23|XSize=1.40712mm|YSize=0.57583mm|CornerRadius=0.28791mm|HoleSize=0mm|Usage=FLASHONLY|Rotation=0.000|XOffset=0mm|YOffset=0mm|HoleType=Round|Shape=RoundedRectangle|*
%AMROUNDEDRECTD23*
21,1,1.40712,0.00000,0,0,0.0*
21,1,0.83129,0.57583,0,0,0.0*
1,1,0.57583,0.41565,0.00000*
1,1,0.57583,-0.41565,0.00000*
1,1,0.57583,-0.41565,0.00000*
1,1,0.57583,0.41565,0.00000*
%
%ADD23ROUNDEDRECTD23*%
%ADD24R,1.20000X1.00000*%
%TA.AperFunction,WasherPad*%
%ADD28C,2.50000*%
%TA.AperFunction,ComponentPad*%
%ADD29C,1.95000*%
%ADD30C,1.50000*%
%ADD31C,1.20000*%
%ADD32O,2.60000X2.20000*%
%ADD33C,1.50800*%
%ADD34O,2.00000X2.60000*%
%ADD35C,1.63000*%
%ADD36C,2.10000*%
%ADD37C,1.44600*%
%ADD38R,1.44600X1.44600*%
%ADD39C,1.00000*%
%ADD40C,0.60000*%
%ADD42R,1.39000X1.39000*%
%ADD43C,1.39000*%
%TA.AperFunction,ViaPad*%
%ADD46C,2.55200*%
%TA.AperFunction,SMDPad,CuDef*%
%ADD57C,0.35400*%
G36*
X-2607500Y9770000D02*
X-2677500D01*
X-2732500Y9825000D01*
X-2677500Y9880000D01*
X-2607500D01*
Y9770000D01*
D02*
G37*
G36*
X-2742500Y9825000D02*
X-2742500D01*
X-2687500Y9770000D01*
X-2822500D01*
Y9880000D01*
X-2687500D01*
X-2742500Y9825000D01*
D02*
G37*
G36*
X-2595000Y9620000D02*
X-2677500D01*
X-2732500Y9675000D01*
X-2677500Y9730000D01*
X-2595000D01*
Y9620000D01*
D02*
G37*
G36*
X-2742500Y9675000D02*
X-2687500Y9620000D01*
X-2835000D01*
Y9730000D01*
X-2687500D01*
X-2742500Y9675000D01*
D02*
G37*
G36*
X-2595000Y9470000D02*
X-2677500D01*
X-2732500Y9525000D01*
X-2677500Y9580000D01*
X-2595000D01*
Y9470000D01*
D02*
G37*
G36*
X-2742500Y9525000D02*
X-2687500Y9470000D01*
X-2835000D01*
Y9580000D01*
X-2687500D01*
X-2742500Y9525000D01*
D02*
G37*
G36*
X-3680000Y9395000D02*
X-3827500D01*
X-3772500Y9450000D01*
X-3827500Y9505000D01*
X-3680000D01*
Y9395000D01*
D02*
G37*
G36*
X-3782500Y9450000D02*
X-3837500Y9395000D01*
X-3920000D01*
Y9505000D01*
X-3837500D01*
X-3782500Y9450000D01*
D02*
G37*
G36*
X-2617500Y9320000D02*
X-2687500D01*
X-2742500Y9375000D01*
X-2687500Y9430000D01*
X-2617500D01*
Y9320000D01*
D02*
G37*
G36*
X-2752500Y9375000D02*
X-2752500D01*
X-2697500Y9320000D01*
X-2832500D01*
Y9430000D01*
X-2697500D01*
X-2752500Y9375000D01*
D02*
G37*
G36*
X3967500Y9765000D02*
X3897500D01*
X3842500Y9820000D01*
X3897500Y9875000D01*
X3967500D01*
Y9765000D01*
D02*
G37*
G36*
X3832500Y9820000D02*
X3832500D01*
X3887500Y9765000D01*
X3752500D01*
Y9875000D01*
X3887500D01*
X3832500Y9820000D01*
D02*
G37*
G36*
X3980000Y9615000D02*
X3897500D01*
X3842500Y9670000D01*
X3897500Y9725000D01*
X3980000D01*
Y9615000D01*
D02*
G37*
G36*
X3832500Y9670000D02*
X3887500Y9615000D01*
X3740000D01*
Y9725000D01*
X3887500D01*
X3832500Y9670000D01*
D02*
G37*
G36*
X3980000Y9465000D02*
X3897500D01*
X3842500Y9520000D01*
X3897500Y9575000D01*
X3980000D01*
Y9465000D01*
D02*
G37*
G36*
X3832500Y9520000D02*
X3887500Y9465000D01*
X3740000D01*
Y9575000D01*
X3887500D01*
X3832500Y9520000D01*
D02*
G37*
G36*
X2920000Y9395000D02*
X2772500D01*
X2827500Y9450000D01*
X2772500Y9505000D01*
X2920000D01*
Y9395000D01*
D02*
G37*
G36*
X2817500Y9450000D02*
X2762500Y9395000D01*
X2680000D01*
Y9505000D01*
X2762500D01*
X2817500Y9450000D01*
D02*
G37*
G36*
X3967500Y9315000D02*
X3897500D01*
X3842500Y9370000D01*
X3897500Y9425000D01*
X3967500D01*
Y9315000D01*
D02*
G37*
G36*
X3832500Y9370000D02*
X3832500D01*
X3887500Y9315000D01*
X3752500D01*
Y9425000D01*
X3887500D01*
X3832500Y9370000D01*
D02*
G37*
D10*
X-1385000Y9222500D02*
D03*
Y9287500D02*
D03*
Y9352500D02*
D03*
Y9417500D02*
D03*
Y9482500D02*
D03*
Y9547500D02*
D03*
Y9612500D02*
D03*
Y9677500D02*
D03*
X-1975000Y9222500D02*
D03*
Y9287500D02*
D03*
Y9352500D02*
D03*
Y9417500D02*
D03*
Y9482500D02*
D03*
Y9547500D02*
D03*
Y9612500D02*
D03*
Y9677500D02*
D03*
D11*
X-2230000Y9672671D02*
D03*
Y9527329D02*
D03*
Y9372671D02*
D03*
Y9227329D02*
D03*
X-1180000Y9722671D02*
D03*
Y9577329D02*
D03*
X375000Y10100000D02*
D03*
Y9954659D02*
D03*
X0Y9960329D02*
D03*
Y10105671D02*
D03*
X-375000Y9352329D02*
D03*
Y9497671D02*
D03*
D12*
X-1907329Y9850000D02*
D03*
X-2052671D02*
D03*
Y9050000D02*
D03*
X-1907329D02*
D03*
X2872671Y9620000D02*
D03*
X2727329D02*
D03*
X1787671Y10782500D02*
D03*
X1642329D02*
D03*
X-3872671Y9625000D02*
D03*
X-3727329D02*
D03*
D13*
X-1799930Y10150000D02*
D03*
Y10250000D02*
D03*
X-1650070D02*
D03*
Y10200000D02*
D03*
Y10150000D02*
D03*
D14*
X-3712500Y9820000D02*
D03*
X-3887500D02*
D03*
X2887500Y9820000D02*
D03*
X2712500D02*
D03*
D16*
X3300000Y9570000D02*
D03*
X-3300000Y9570000D02*
D03*
D17*
X3105947Y9695000D02*
D03*
X-3494053Y9695000D02*
D03*
D18*
X3105947Y9645000D02*
D03*
Y9595000D02*
D03*
Y9545000D02*
D03*
Y9495000D02*
D03*
Y9445000D02*
D03*
X3494053D02*
D03*
Y9495000D02*
D03*
Y9545000D02*
D03*
Y9595000D02*
D03*
Y9645000D02*
D03*
Y9695000D02*
D03*
X-3494053Y9645000D02*
D03*
Y9595000D02*
D03*
Y9545000D02*
D03*
Y9495000D02*
D03*
Y9445000D02*
D03*
X-3105947D02*
D03*
Y9495000D02*
D03*
Y9545000D02*
D03*
Y9595000D02*
D03*
Y9645000D02*
D03*
Y9695000D02*
D03*
D19*
X3225000Y9325946D02*
D03*
X3275000D02*
D03*
X3325000D02*
D03*
X3375000D02*
D03*
Y9814053D02*
D03*
X3325000D02*
D03*
X3275000D02*
D03*
X3225000D02*
D03*
X-3375000Y9325947D02*
D03*
X-3325000D02*
D03*
X-3275000D02*
D03*
X-3225000D02*
D03*
Y9814053D02*
D03*
X-3275000D02*
D03*
X-3325000D02*
D03*
X-3375000D02*
D03*
D20*
X3940399Y9170000D02*
D03*
X3800000D02*
D03*
X3920199Y10170000D02*
D03*
X3779800D02*
D03*
X2729800Y9275000D02*
D03*
X2870199D02*
D03*
X3079801Y10170000D02*
D03*
X3220200D02*
D03*
X3620200D02*
D03*
X3479801D02*
D03*
X-3670199Y10170000D02*
D03*
X-3529800D02*
D03*
X-3179801D02*
D03*
X-3320200D02*
D03*
X-2879800D02*
D03*
X-3020199D02*
D03*
X-3870200Y9275000D02*
D03*
X-3729801D02*
D03*
X-2659600Y9170000D02*
D03*
X-2799999D02*
D03*
X-1395199Y10025000D02*
D03*
X-1254800D02*
D03*
X-1395199Y10200000D02*
D03*
X-1254800D02*
D03*
D21*
X-381000Y10103200D02*
D03*
Y9962800D02*
D03*
X190500Y10103200D02*
D03*
Y9962800D02*
D03*
X-571500Y10103200D02*
D03*
Y9962800D02*
D03*
X-190500D02*
D03*
Y10103200D02*
D03*
X550000Y10100000D02*
D03*
Y9959601D02*
D03*
X0Y3070200D02*
D03*
Y2929801D02*
D03*
D22*
X-115055Y9493000D02*
D03*
D23*
Y9398000D02*
D03*
Y9303000D02*
D03*
X115055D02*
D03*
Y9493000D02*
D03*
D24*
X0Y2350000D02*
D03*
Y2650000D02*
D03*
D28*
X375000Y2500000D02*
D03*
X-375000D02*
D03*
D29*
X1368500Y11164999D02*
D03*
X2068500D02*
D03*
D30*
X1493500Y11419999D02*
D03*
X1943500D02*
D03*
D31*
X-508000Y11800000D02*
D03*
Y11550000D02*
D03*
X492000Y11800000D02*
D03*
Y11550000D02*
D03*
X-8000Y11050000D02*
D03*
X-508000Y10550000D02*
D03*
X492000D02*
D03*
D32*
X-8000Y11550000D02*
D03*
D33*
X242000Y10550000D02*
D03*
X-8000D02*
D03*
X-258000D02*
D03*
D34*
X-508000Y11050000D02*
D03*
X492000D02*
D03*
D35*
X-2828500Y11396100D02*
D03*
X-3971500D02*
D03*
X3971500Y11396100D02*
D03*
X2828500D02*
D03*
D36*
X-4144000Y11091100D02*
D03*
X-2656000D02*
D03*
X2656000Y11091100D02*
D03*
X4144000D02*
D03*
D37*
X-3844500Y10507100D02*
D03*
X-3717500Y10761100D02*
D03*
X-3590500Y10507100D02*
D03*
X-3463500Y10761100D02*
D03*
X-3336500Y10507100D02*
D03*
X-3209500Y10761100D02*
D03*
X-3082500Y10507100D02*
D03*
X2955500Y10507100D02*
D03*
X3082500Y10761100D02*
D03*
X3209500Y10507100D02*
D03*
X3336500Y10761100D02*
D03*
X3463500Y10507100D02*
D03*
X3590500Y10761100D02*
D03*
X3717500Y10507100D02*
D03*
D38*
X-2955500Y10761100D02*
D03*
X3844500Y10761100D02*
D03*
D39*
X-1654500Y10715001D02*
D03*
X-1774500D02*
D03*
Y10835001D02*
D03*
X-1654500D02*
D03*
D40*
X-1364500Y11135001D02*
D03*
X-2064500D02*
D03*
D42*
X-889000Y11846500D02*
D03*
X889000Y7020500D02*
D03*
D43*
X-889000Y11592500D02*
D03*
Y11338500D02*
D03*
Y11084500D02*
D03*
Y10830500D02*
D03*
Y10576500D02*
D03*
Y10322500D02*
D03*
Y10068500D02*
D03*
Y9814500D02*
D03*
Y9560500D02*
D03*
Y9306500D02*
D03*
Y9052500D02*
D03*
Y8798500D02*
D03*
Y8544500D02*
D03*
Y8290500D02*
D03*
Y8036500D02*
D03*
Y7782500D02*
D03*
Y7528500D02*
D03*
Y7274500D02*
D03*
Y7020500D02*
D03*
X889000Y7274500D02*
D03*
Y7528500D02*
D03*
Y7782500D02*
D03*
Y8036500D02*
D03*
Y8290500D02*
D03*
Y8544500D02*
D03*
Y8798500D02*
D03*
Y9052500D02*
D03*
Y9306500D02*
D03*
Y9560500D02*
D03*
Y9814500D02*
D03*
Y10068500D02*
D03*
Y10322500D02*
D03*
Y10576500D02*
D03*
Y10830500D02*
D03*
Y11084500D02*
D03*
Y11338500D02*
D03*
Y11592500D02*
D03*
Y11846500D02*
D03*
D46*
X-4500000Y1000000D02*
D03*
X4500000D02*
D03*
Y9750000D02*
D03*
X-4500000D02*
D03*
D57*
X-3740000Y9450000D02*
D03*
X-3850000D02*
D03*
X2860000D02*
D03*
X2750000D02*
D03*
X3800000Y9520000D02*
D03*
X3910000D02*
D03*
X3800000Y9370000D02*
D03*
X3910000D02*
D03*
X3800000Y9820000D02*
D03*
X3910000D02*
D03*
X3800000Y9670000D02*
D03*
X3910000D02*
D03*
X-2775000Y9675000D02*
D03*
X-2665000D02*
D03*
X-2775000Y9825000D02*
D03*
X-2665000D02*
D03*
X-2775000Y9525000D02*
D03*
X-2665000D02*
D03*
X-2785000Y9375000D02*
D03*
X-2675000D02*
D03*
%TF.MD5,0b1fef054cd5414597553228506934f3*%
M02*
