M48
;Layer_Color=9474304
;FILE_FORMAT=4:4
METRIC,LZ
;TYPE=PLATED
T1F00S00C0.4000
T2F00S00C0.6000
T3F00S00C0.8900
T4F00S00C1.0000
T5F00S00C1.0400
T6F00S00C1.3000
T7F00S00C1.4000
T8F00S00C1.5000
T9F00S00C3.0000
%
T01
X-004106Y0005535
X-003606Y0015535
X-004106Y0025535
X-003106
X-002106
X-001106
X-000606Y0015535
X000394
X-000106Y0005535
X-001106
X-002106
X-003106
X-002606Y0015535
X-001606
X001394
X002394
X003394
X004394
X003894Y0025535
X002894
X001894
X000894
Y0005535
X001894
X002894
X003894
X004394Y0035535
X003394
X002394
X001394
X001894Y0045535
X002894
X003894
X004394Y0055535
X003394
X002394
X001394
X000894Y0045535
X0014Y00721
X002894Y0065535
X003894
X000394Y0055535
X-000606
X-001606
X-002606
X-002106Y0065535
X-001106
Y0045535
X-000106
X000394Y0035535
X-000606
X-001606
X-002606
X-002106Y0045535
X-003106
Y0065535
X-004106
X-003606Y0055535
X-004106Y0045535
X-003606Y0035535
Y0075535
X-004106Y0085535
X-00399Y00928
X-00360069Y009645
X-0036Y00983
X-00345Y01035
X-00325
X-004106Y0105535
X-00288Y01007
X-0025Y009825
Y009375
Y009175
X-003106Y0085535
X-002606Y0075535
X-001965Y0078575
X-001606Y0075535
X-00161Y00834
X-000106Y0085535
X0001673Y0097227
X000394Y0095535
X-000606
X-0011827Y00985
X-0007Y01095
X-002106Y0105535
X-00261628Y01086372
X001894Y0105535
X002394Y0095535
X00261Y00928
X00298Y00964
X00407Y00982
X0039202Y0100702
X00407Y00937
X00394Y00907
X003894Y0085535
X004394Y0075535
X003394
X002394
X001394
X001635Y00796
X001894Y0085535
X001394Y0095535
T02
X-0017745Y010715
X-0016545
Y010835
X-0017745
X002725Y010825
T03
X-0038445Y0105071
X-0035905
X-0033365
X-0034635Y0107611
X-0037175
X-0032095
X-0029555
X-0030825Y0105071
X0029555Y0105071
X0032095
X0034635
X0037175
X0035905Y0107611
X0033365
X0030825
X0038445
T04
X-000258Y01055
X-000008
X000242
X0014935Y01142
X0019435
T05
X000889Y0070205
Y0072745
X-000889
Y0070205
Y0075285
Y0077825
Y0080365
Y0082905
Y0085445
Y0087985
Y0090525
Y0093065
Y0095605
Y0098145
Y0100685
Y0103225
Y0105765
Y0108305
Y0110845
Y0113385
X000889
Y0110845
Y0108305
Y0105765
Y0103225
Y0100685
Y0098145
Y0095605
Y0093065
Y0090525
Y0087985
Y0085445
Y0082905
Y0080365
Y0077825
Y0075285
Y0115925
Y0118465
X-000889
Y0115925
T06
X0013685Y011165
X0020685
T07
X-000508Y01105
X000492
X-000008Y01155
T08
X-004144Y0110911
X-002656
X002656Y0110911
X004144
T09
X-0045Y001
X0045
X-0045Y00975
X0045
M30
