%TF.GenerationSoftware,Altium Limited,Altium Designer,22.10.1 (41)*%
G04 Layer_Color=65535*
%FSLAX45Y45*%
%MOMM*%
%TF.SameCoordinates,CC01BCFA-2ECF-4BF2-A349-93AF2CE8EC74*%
%TF.FilePolarity,Positive*%
%TF.FileFunction,Legend,Top*%
%TF.Part,Single*%
G01*
G75*
%TA.AperFunction,NonConductor*%
%ADD47C,0.60000*%
%ADD48C,0.25000*%
%ADD49C,0.15240*%
%ADD50C,0.20000*%
%ADD51C,0.10000*%
%ADD52C,0.12700*%
%ADD53C,0.12000*%
D47*
X-1735000Y9605000D02*
G03*
X-1735000Y9605000I-30000J0D01*
G01*
D48*
X-1962500Y9755000D02*
G03*
X-1962500Y9755000I-12500J0D01*
G01*
X3021894Y9695000D02*
G03*
X3021894Y9695000I-12500J0D01*
G01*
X-3578106Y9695000D02*
G03*
X-3578106Y9695000I-12500J0D01*
G01*
X-235411Y9493000D02*
G03*
X-235411Y9493000I-12500J0D01*
G01*
D49*
X-1586316Y10142617D02*
G03*
X-1586316Y10157383I1886J7383D01*
G01*
X-2166500Y9587300D02*
Y9612700D01*
X-2293500Y9587300D02*
Y9612700D01*
X-2166500Y9287300D02*
Y9312700D01*
X-2293500Y9287300D02*
Y9312700D01*
X-1116500Y9637300D02*
Y9662700D01*
X-1243500Y9637300D02*
Y9662700D01*
X-1992700Y9113500D02*
X-1967300D01*
X-1992700Y8986500D02*
X-1967300D01*
X-1802470Y10102210D02*
X-1647530D01*
X-1802470Y10297790D02*
X-1647530D01*
X1702300Y10719000D02*
X1727700D01*
X1702300Y10846000D02*
X1727700D01*
X438500Y10014629D02*
Y10040029D01*
X311500Y10014629D02*
Y10040029D01*
X-63500Y10020300D02*
Y10045700D01*
X63500Y10020300D02*
Y10045700D01*
D50*
X652000Y11550000D02*
G03*
X652000Y11550000I-10000J0D01*
G01*
X-1040000Y11900000D02*
G03*
X-1040000Y11900000I-10000J0D01*
G01*
X899000Y6803000D02*
G03*
X899000Y6803000I-10000J0D01*
G01*
X-1865000Y9195000D02*
X-1495000D01*
X-1865000Y9705000D02*
X-1495000D01*
Y9195000D02*
Y9705000D01*
X-1865000Y9195000D02*
Y9705000D01*
X-2650000Y11550000D02*
X-2648000Y11850000D01*
X-4152000D02*
X-4150000Y11550000D01*
X-2648000Y10391100D02*
Y10938600D01*
X-4152000Y10391100D02*
X-2648000D01*
X-4152000D02*
Y10938600D01*
X4150000Y11550000D02*
X4152000Y11850000D01*
X2648000D02*
X2650000Y11550000D01*
X4152000Y10391100D02*
Y10938600D01*
X2648000Y10391100D02*
X4152000D01*
X2648000D02*
Y10938600D01*
X3425000Y9320000D02*
X3500000D01*
Y9395000D01*
X3425000Y9820000D02*
X3500000D01*
Y9745000D02*
Y9820000D01*
X3100000Y9320000D02*
X3175000D01*
X3100000D02*
Y9395000D01*
Y9820000D02*
X3175000D01*
X3100000Y9745000D02*
Y9820000D01*
X-3175000Y9320000D02*
X-3100000D01*
Y9395000D01*
X-3175000Y9820000D02*
X-3100000D01*
Y9745000D02*
Y9820000D01*
X-3500000Y9320000D02*
X-3425000D01*
X-3500000D02*
Y9395000D01*
Y9820000D02*
X-3425000D01*
X-3500000Y9745000D02*
Y9820000D01*
X-5301Y9548000D02*
X5301D01*
X-5301Y9248000D02*
Y9548000D01*
Y9248000D02*
X5301D01*
Y9548000D01*
X-65000Y2430000D02*
Y2570000D01*
X65000Y2430000D02*
Y2570000D01*
X-1009650Y11950000D02*
X-768350D01*
X-1009650Y6868000D02*
X-768350D01*
Y11950000D01*
X-1009650Y6868000D02*
Y11950000D01*
X768350Y6868000D02*
X1009650D01*
X768350Y11950000D02*
X1009650D01*
X768350Y6868000D02*
Y11950000D01*
X1009650Y6868000D02*
Y11950000D01*
D51*
X-2595500Y10761100D02*
G03*
X-2605500Y10761100I-5000J0D01*
G01*
D02*
G03*
X-2595500Y10761100I5000J0D01*
G01*
X4204500Y10761100D02*
G03*
X4194500Y10761100I-5000J0D01*
G01*
D02*
G03*
X4204500Y10761100I5000J0D01*
G01*
X1343500Y11319999D02*
Y11469999D01*
X2093500Y11319999D02*
Y11469999D01*
X1343500Y10999999D02*
Y11019999D01*
Y10999999D02*
X2093500D01*
Y11019999D01*
X-2239500Y10455001D02*
X-1189500D01*
X-2239500D02*
Y11950000D01*
X-1189500D01*
Y10455001D02*
Y11950000D01*
D52*
X-632500Y10350000D02*
Y11900000D01*
X-458000D01*
Y11950000D01*
X442000D01*
Y11900000D02*
Y11950000D01*
Y11900000D02*
X615000D01*
Y10350000D02*
Y11900000D01*
X-632500Y10350000D02*
X615000D01*
X-564Y2270000D02*
Y2210752D01*
X29059Y2240376D02*
X-30188D01*
D53*
X-3697500Y9507500D02*
X-3672500D01*
Y9392500D02*
Y9507500D01*
X-3697500Y9392500D02*
X-3672500D01*
X-3927500D02*
X-3902500D01*
X-3927500D02*
Y9467500D01*
Y9507500D01*
X-3902500D01*
X2902500D02*
X2927500D01*
Y9392500D02*
Y9507500D01*
X2902500Y9392500D02*
X2927500D01*
X2672500D02*
X2697500D01*
X2672500D02*
Y9467500D01*
Y9507500D01*
X2697500D01*
X3732500Y9462500D02*
X3757500D01*
X3732500D02*
Y9577500D01*
X3757500D01*
X3962500D02*
X3987500D01*
Y9502500D02*
Y9577500D01*
Y9462500D02*
Y9502500D01*
X3962500Y9462500D02*
X3987500D01*
X3962500Y9312500D02*
X3987500D01*
Y9352500D01*
Y9427500D01*
X3962500D02*
X3987500D01*
X3732500D02*
X3757500D01*
X3732500Y9312500D02*
Y9427500D01*
Y9312500D02*
X3757500D01*
X3962500Y9762500D02*
X3987500D01*
Y9802500D01*
Y9877500D01*
X3962500D02*
X3987500D01*
X3732500D02*
X3757500D01*
X3732500Y9762500D02*
Y9877500D01*
Y9762500D02*
X3757500D01*
X3732500Y9612500D02*
X3757500D01*
X3732500D02*
Y9727500D01*
X3757500D01*
X3962500D02*
X3987500D01*
Y9652500D02*
Y9727500D01*
Y9612500D02*
Y9652500D01*
X3962500Y9612500D02*
X3987500D01*
X-2842500Y9617500D02*
X-2817500D01*
X-2842500D02*
Y9732500D01*
X-2817500D01*
X-2612500D02*
X-2587500D01*
Y9657500D02*
Y9732500D01*
Y9617500D02*
Y9657500D01*
X-2612500Y9617500D02*
X-2587500D01*
X-2612500Y9767500D02*
X-2587500D01*
Y9807500D01*
Y9882500D01*
X-2612500D02*
X-2587500D01*
X-2842500D02*
X-2817500D01*
X-2842500Y9767500D02*
Y9882500D01*
Y9767500D02*
X-2817500D01*
X-2842500Y9467500D02*
X-2817500D01*
X-2842500D02*
Y9582500D01*
X-2817500D01*
X-2612500D02*
X-2587500D01*
Y9507500D02*
Y9582500D01*
Y9467500D02*
Y9507500D01*
X-2612500Y9467500D02*
X-2587500D01*
X-2622500Y9317500D02*
X-2597500D01*
Y9357500D01*
Y9432500D01*
X-2622500D02*
X-2597500D01*
X-2852500D02*
X-2827500D01*
X-2852500Y9317500D02*
Y9432500D01*
Y9317500D02*
X-2827500D01*
%TF.MD5,01bd93843e74eedf4859e2d175f60155*%
M02*
