%TF.GenerationSoftware,Altium Limited,Altium Designer,22.10.1 (41)*%
G04 Layer_Color=32768*
%FSLAX45Y45*%
%MOMM*%
%TF.SameCoordinates,CC01BCFA-2ECF-4BF2-A349-93AF2CE8EC74*%
%TF.FilePolarity,Positive*%
%TF.FileFunction,Other,Top_Courtyard*%
%TF.Part,Single*%
G01*
G75*
%TA.AperFunction,NonConductor*%
%ADD49C,0.15240*%
%ADD50C,0.20000*%
%ADD51C,0.10000*%
%ADD58C,0.05000*%
%ADD59C,0.07620*%
%ADD60C,0.01000*%
D49*
X-1815170Y10310490D02*
X-1634830D01*
X-1815170Y10288100D02*
Y10310490D01*
X-1860890Y10288100D02*
X-1815170D01*
X-1860890Y10111900D02*
Y10288100D01*
Y10111900D02*
X-1815170D01*
Y10089510D02*
Y10111900D01*
Y10089510D02*
X-1634830D01*
Y10111900D01*
X-1589110D01*
Y10288100D01*
X-1634830D02*
X-1589110D01*
X-1634830D02*
Y10310490D01*
D50*
X3039393Y9880606D02*
X3560607D01*
Y9259393D02*
Y9880606D01*
X3039393Y9259393D02*
X3560607D01*
X3039393D02*
Y9880606D01*
X-3560607Y9880607D02*
X-3039393D01*
Y9259393D02*
Y9880607D01*
X-3560607Y9259393D02*
X-3039393D01*
X-3560607D02*
Y9880607D01*
X-210411Y9573000D02*
X210411D01*
Y9223000D02*
Y9573000D01*
X-210411Y9223000D02*
X210411D01*
X-210411D02*
Y9573000D01*
D51*
X-1680000Y9400000D02*
Y9500000D01*
X-1730000Y9450000D02*
X-1630000D01*
X2216000Y10949999D02*
Y12304999D01*
X1221000D02*
X2216000D01*
X1221000Y10949999D02*
Y12304999D01*
Y10949999D02*
X2216000D01*
X-2437500Y10291100D02*
Y12306100D01*
X-4362500D02*
X-2437500D01*
X-4362500Y10291100D02*
Y12306100D01*
Y10291100D02*
X-2437500D01*
X4362500Y10291100D02*
Y12306100D01*
X2437500D02*
X4362500D01*
X2437500Y10291100D02*
Y12306100D01*
Y10291100D02*
X4362500D01*
X-2339500Y10355001D02*
X-1089500D01*
X-2339500D02*
Y12250001D01*
X-1089500D01*
Y10355001D02*
Y12250001D01*
D58*
X-2070000Y9170000D02*
X-1290000D01*
X-2070000Y9730000D02*
X-1290000D01*
Y9170000D02*
Y9730000D01*
X-2070000Y9170000D02*
Y9730000D01*
X-3629200Y9722500D02*
Y9917500D01*
X-3970800Y9722500D02*
Y9917500D01*
X-3629200D01*
X-3970800Y9722500D02*
X-3629200D01*
X2970800Y9722500D02*
Y9917500D01*
X2629200Y9722500D02*
Y9917500D01*
X2970800D01*
X2629200Y9722500D02*
X2970800D01*
X-633000Y12025000D02*
X617000D01*
X-633000Y10325000D02*
Y12025000D01*
Y10325000D02*
X617000D01*
Y12025000D01*
X-50000Y2500000D02*
X50000D01*
X0Y2450000D02*
Y2550000D01*
X-85000Y2720000D02*
X85000D01*
X-85000Y2280000D02*
Y2720000D01*
Y2280000D02*
X85000D01*
Y2720000D01*
X-1034650Y12024000D02*
X-743350D01*
Y6843000D02*
Y12024000D01*
X-1034650Y6843000D02*
X-743350D01*
X-1034650D02*
Y12024000D01*
X743350Y6843000D02*
X1034650D01*
X743350D02*
Y12024000D01*
X1034650D01*
Y6843000D02*
Y12024000D01*
D59*
X-2300607Y9454394D02*
X-2159393D01*
Y9745607D01*
X-2300607D02*
X-2159393D01*
X-2300607Y9454394D02*
Y9745607D01*
Y9154393D02*
X-2159393D01*
Y9445606D01*
X-2300607D02*
X-2159393D01*
X-2300607Y9154393D02*
Y9445606D01*
X-1250607Y9504393D02*
X-1109393D01*
Y9795607D01*
X-1250607D02*
X-1109393D01*
X-1250607Y9504393D02*
Y9795607D01*
X-2125606Y9779393D02*
Y9920607D01*
Y9779393D02*
X-1834393D01*
Y9920607D01*
X-2125606D02*
X-1834393D01*
Y8979393D02*
Y9120607D01*
X-2125606D02*
X-1834393D01*
X-2125606Y8979393D02*
Y9120607D01*
Y8979393D02*
X-1834393D01*
X3727093Y9099393D02*
Y9240606D01*
Y9099393D02*
X4013306D01*
Y9240606D01*
X3727093D02*
X4013306D01*
X3706893Y10099393D02*
Y10240606D01*
Y10099393D02*
X3993107D01*
Y10240606D01*
X3706893D02*
X3993107D01*
X2943107Y9204393D02*
Y9345607D01*
X2656893D02*
X2943107D01*
X2656893Y9204393D02*
Y9345607D01*
Y9204393D02*
X2943107D01*
X2654393Y9549393D02*
Y9690606D01*
Y9549393D02*
X2945607D01*
Y9690606D01*
X2654393D02*
X2945607D01*
X3293107Y10099393D02*
Y10240606D01*
X3006893D02*
X3293107D01*
X3006893Y10099393D02*
Y10240606D01*
Y10099393D02*
X3293107D01*
X3406893D02*
Y10240606D01*
Y10099393D02*
X3693107D01*
Y10240606D01*
X3406893D02*
X3693107D01*
X1569394Y10711893D02*
X1860607D01*
X1569394D02*
Y10853107D01*
X1860607D01*
Y10711893D02*
Y10853107D01*
X-3456893Y10099393D02*
Y10240607D01*
X-3743107D02*
X-3456893D01*
X-3743107Y10099393D02*
Y10240607D01*
Y10099393D02*
X-3456893D01*
X-3393107D02*
Y10240607D01*
Y10099393D02*
X-3106893D01*
Y10240607D01*
X-3393107D02*
X-3106893D01*
X-3093107Y10099393D02*
Y10240607D01*
Y10099393D02*
X-2806893D01*
Y10240607D01*
X-3093107D02*
X-2806893D01*
X-3656893Y9204393D02*
Y9345607D01*
X-3943107D02*
X-3656893D01*
X-3943107Y9204393D02*
Y9345607D01*
Y9204393D02*
X-3656893D01*
X-2872907Y9099393D02*
Y9240607D01*
Y9099393D02*
X-2586693D01*
Y9240607D01*
X-2872907D02*
X-2586693D01*
X-1181893Y9954393D02*
Y10095607D01*
X-1468107D02*
X-1181893D01*
X-1468107Y9954393D02*
Y10095607D01*
Y9954393D02*
X-1181893D01*
Y10129393D02*
Y10270607D01*
X-1468107D02*
X-1181893D01*
X-1468107Y10129393D02*
Y10270607D01*
Y10129393D02*
X-1181893D01*
X-451607Y9889893D02*
X-310393D01*
Y10176107D01*
X-451607D02*
X-310393D01*
X-451607Y9889893D02*
Y10176107D01*
X119893Y9889893D02*
X261107D01*
Y10176107D01*
X119893D02*
X261107D01*
X119893Y9889893D02*
Y10176107D01*
X-642107Y9889893D02*
X-500893D01*
Y10176107D01*
X-642107D02*
X-500893D01*
X-642107Y9889893D02*
Y10176107D01*
X-261107D02*
X-119893D01*
X-261107Y9889893D02*
Y10176107D01*
Y9889893D02*
X-119893D01*
Y10176107D01*
X479393Y9886694D02*
X620607D01*
Y10172907D01*
X479393D02*
X620607D01*
X479393Y9886694D02*
Y10172907D01*
X-70607Y2856893D02*
X70607D01*
Y3143107D01*
X-70607D02*
X70607D01*
X-70607Y2856893D02*
Y3143107D01*
X-3945607Y9695607D02*
X-3654394D01*
Y9554393D02*
Y9695607D01*
X-3945607Y9554393D02*
X-3654394D01*
X-3945607D02*
Y9695607D01*
X445607Y9881723D02*
Y10172936D01*
X304393Y9881723D02*
X445607D01*
X304393D02*
Y10172936D01*
X445607D01*
X-70607Y9887393D02*
Y10178607D01*
X70607D01*
Y9887393D02*
Y10178607D01*
X-70607Y9887393D02*
X70607D01*
X-445607Y9279393D02*
Y9570606D01*
X-304393D01*
Y9279393D02*
Y9570606D01*
X-445607Y9279393D02*
X-304393D01*
D60*
X-3935000Y9515000D02*
X-3820000D01*
X-3935000Y9385000D02*
Y9515000D01*
Y9385000D02*
X-3665000D01*
Y9515000D01*
X-3820000D02*
X-3665000D01*
X2665000D02*
X2780000D01*
X2665000Y9385000D02*
Y9515000D01*
Y9385000D02*
X2935000D01*
Y9515000D01*
X2780000D02*
X2935000D01*
X3880000Y9455000D02*
X3995000D01*
Y9585000D01*
X3725000D02*
X3995000D01*
X3725000Y9455000D02*
Y9585000D01*
Y9455000D02*
X3880000D01*
X3725000Y9305000D02*
X3880000D01*
X3725000D02*
Y9435000D01*
X3995000D01*
Y9305000D02*
Y9435000D01*
X3880000Y9305000D02*
X3995000D01*
X3725000Y9755000D02*
X3880000D01*
X3725000D02*
Y9885000D01*
X3995000D01*
Y9755000D02*
Y9885000D01*
X3880000Y9755000D02*
X3995000D01*
X3880000Y9605000D02*
X3995000D01*
Y9735000D01*
X3725000D02*
X3995000D01*
X3725000Y9605000D02*
Y9735000D01*
Y9605000D02*
X3880000D01*
X-2695000Y9610000D02*
X-2580000D01*
Y9740000D01*
X-2850000D02*
X-2580000D01*
X-2850000Y9610000D02*
Y9740000D01*
Y9610000D02*
X-2695000D01*
X-2850000Y9760000D02*
X-2695000D01*
X-2850000D02*
Y9890000D01*
X-2580000D01*
Y9760000D02*
Y9890000D01*
X-2695000Y9760000D02*
X-2580000D01*
X-2695000Y9460000D02*
X-2580000D01*
Y9590000D01*
X-2850000D02*
X-2580000D01*
X-2850000Y9460000D02*
Y9590000D01*
Y9460000D02*
X-2695000D01*
X-2860000Y9310000D02*
X-2705000D01*
X-2860000D02*
Y9440000D01*
X-2590000D01*
Y9310000D02*
Y9440000D01*
X-2705000Y9310000D02*
X-2590000D01*
%TF.MD5,624f18199049242bac59c8781d61fa28*%
M02*
